<?xml version="1.0" standalone="no"?>
<!DOCTYPE svg PUBLIC "-//W3C//DTD SVG 20010904//EN"
 "http://www.w3.org/TR/2001/REC-SVG-20010904/DTD/svg10.dtd">
<svg version="1.0" xmlns="http://www.w3.org/2000/svg"
 width="2048.000000pt" height="2048.000000pt" viewBox="0 0 2048.000000 2048.000000"
 preserveAspectRatio="xMidYMid meet">
<metadata>
Created by potrace 1.11, written by Peter Selinger 2001-2013
</metadata>
<g transform="translate(0.000000,2048.000000) scale(0.100000,-0.100000)"
fill="#000000" stroke="none">
<path d="M14458 15455 c-2 -2 -39 -6 -83 -9 -109 -8 -209 -19 -285 -31 -14 -2
-43 -6 -65 -10 -23 -3 -52 -7 -65 -10 -14 -3 -52 -10 -85 -16 -196 -35 -484
-118 -695 -201 -244 -95 -532 -249 -747 -399 -447 -312 -794 -685 -1090 -1174
-239 -396 -443 -920 -557 -1435 -29 -134 -71 -361 -81 -439 -4 -30 -8 -63 -10
-73 -2 -11 -7 -46 -10 -79 -4 -33 -8 -68 -10 -78 -2 -9 -6 -55 -10 -102 -4
-46 -8 -100 -10 -119 -26 -265 -26 -1486 0 -1699 3 -18 7 -65 10 -105 10 -128
36 -352 51 -441 3 -16 7 -42 9 -57 3 -16 7 -43 10 -60 96 -582 300 -1179 551
-1611 19 -32 34 -60 34 -63 0 -3 9 -17 19 -32 10 -15 45 -67 76 -116 32 -49
61 -94 66 -100 5 -6 39 -51 76 -101 113 -154 194 -247 353 -405 140 -139 168
-164 290 -260 314 -249 597 -409 976 -553 114 -43 324 -109 409 -128 22 -5 51
-12 64 -14 12 -3 51 -12 85 -20 82 -19 345 -63 424 -70 35 -4 72 -8 82 -10
100 -19 744 -27 950 -11 175 13 270 22 320 31 14 2 45 7 70 10 25 3 56 8 70
10 14 3 41 7 60 10 32 5 201 38 260 51 14 3 36 7 49 10 14 3 28 7 31 9 4 2 21
7 38 10 101 17 525 161 638 215 22 11 43 20 47 20 9 0 221 105 312 155 151 82
407 255 534 361 193 160 368 343 518 542 322 426 539 937 632 1487 16 95 20
117 26 175 11 93 13 112 20 215 4 55 8 104 9 109 1 13 -2334 14 -2341 2 -4 -5
-7 -37 -9 -70 -2 -59 -13 -175 -19 -206 -2 -8 -6 -37 -9 -65 -22 -165 -105
-421 -182 -556 -142 -252 -356 -435 -639 -547 -82 -32 -233 -78 -289 -87 -17
-3 -38 -8 -46 -10 -8 -2 -33 -7 -55 -10 -23 -3 -52 -7 -65 -10 -98 -19 -497
-27 -635 -13 -75 8 -237 35 -270 45 -11 3 -21 5 -22 5 -2 -1 -49 15 -105 35
-469 164 -744 484 -913 1059 -15 49 -28 96 -30 104 -2 9 -15 69 -30 134 -14
66 -28 133 -31 150 -2 17 -6 42 -9 56 -7 34 -28 180 -39 278 -12 101 -17 143
-21 212 -3 41 -8 95 -10 120 -14 153 -19 389 -19 965 0 654 5 861 29 1065 3
19 7 67 10 105 3 39 8 81 10 95 4 23 8 52 20 137 2 15 9 60 15 98 7 39 14 79
15 90 2 11 11 54 20 95 9 41 18 86 21 100 8 41 53 197 79 274 84 254 184 445
322 616 218 270 557 446 933 487 143 15 545 8 647 -11 12 -3 43 -7 70 -11 151
-21 375 -87 511 -151 250 -119 441 -310 563 -561 67 -141 132 -360 155 -523 4
-30 8 -57 9 -60 1 -3 5 -45 10 -95 5 -49 9 -94 10 -100 1 -5 3 -40 3 -77 l2
-67 1179 0 c902 0 1179 3 1176 12 -3 7 -7 39 -10 72 -3 33 -7 71 -9 85 -2 14
-7 52 -11 85 -4 33 -9 69 -11 80 -2 11 -7 34 -9 50 -29 163 -36 199 -60 300
-9 39 -18 78 -20 87 -13 63 -96 316 -142 438 -59 153 -168 385 -228 484 -19
32 -35 61 -35 63 0 14 -184 280 -259 372 -157 197 -347 387 -526 529 -44 35
-91 73 -105 84 -118 93 -409 268 -590 355 -248 118 -648 256 -860 296 -14 3
-59 12 -100 21 -41 8 -88 18 -105 21 -16 2 -39 7 -50 9 -26 5 -88 14 -145 21
-25 4 -56 8 -70 10 -38 6 -174 20 -305 31 -66 6 -732 14 -737 9z"/>
<path d="M2010 10430 l0 -4891 1783 4 c980 2 1793 6 1807 9 14 3 64 9 110 13
47 4 94 9 105 11 11 2 45 7 75 10 67 7 365 63 450 84 487 120 912 300 1332
565 56 34 226 151 253 172 6 5 53 42 105 83 134 105 223 184 359 320 68 67 96
98 205 220 48 54 178 219 217 275 18 28 36 52 39 55 13 12 144 217 196 307 83
142 213 408 274 558 29 72 58 144 65 160 68 160 192 628 230 865 3 19 10 60
15 90 10 59 37 289 45 380 26 296 26 1178 1 1405 -2 17 -7 66 -10 110 -4 44
-9 87 -11 95 -2 8 -6 40 -10 71 -3 31 -7 65 -9 75 -2 11 -6 40 -10 65 -18 120
-61 327 -102 479 -36 138 -142 463 -174 535 -10 22 -34 81 -55 130 -87 212
-264 540 -398 740 -41 61 -197 276 -207 285 -3 3 -39 45 -80 95 -184 221 -394
421 -641 612 -89 68 -241 175 -297 208 -9 6 -66 40 -127 76 -99 59 -399 211
-500 254 -22 9 -49 20 -60 25 -11 5 -38 16 -60 24 -22 7 -79 28 -127 45 -159
57 -441 138 -548 157 -14 3 -41 9 -60 14 -19 5 -55 12 -80 15 -24 4 -47 8 -50
10 -3 1 -32 6 -65 10 -32 3 -62 8 -65 10 -3 2 -32 6 -65 10 -33 4 -73 8 -90
10 -16 2 -64 7 -105 11 -41 4 -88 9 -105 12 -16 3 -823 7 -1792 9 l-1763 4 0
-4891z m3440 3056 c786 -90 1320 -521 1610 -1299 44 -118 115 -372 133 -472 3
-17 13 -67 21 -112 8 -45 18 -108 21 -140 4 -32 8 -65 10 -73 2 -8 7 -42 10
-75 3 -33 8 -76 10 -95 15 -131 20 -311 20 -795 0 -554 -4 -648 -30 -880 -12
-103 -16 -131 -25 -185 -5 -30 -12 -73 -16 -95 -63 -432 -260 -928 -474 -1199
-246 -310 -503 -495 -854 -611 -57 -19 -114 -36 -127 -39 -13 -3 -35 -7 -49
-11 -27 -5 -158 -29 -225 -41 -22 -3 -282 -8 -577 -11 l-538 -5 -1 34 c0 42 0
6088 0 6106 1 11 90 13 514 9 281 -3 537 -7 567 -11z"/>
</g>
</svg>
