<?xml version="1.0" standalone="no"?>
<!DOCTYPE svg PUBLIC "-//W3C//DTD SVG 20010904//EN"
 "http://www.w3.org/TR/2001/REC-SVG-20010904/DTD/svg10.dtd">
<svg version="1.0" xmlns="http://www.w3.org/2000/svg"
 width="2048.000000pt" height="2048.000000pt" viewBox="0 0 2048.000000 2048.000000"
 preserveAspectRatio="xMidYMid meet">
<metadata>
Created by potrace 1.11, written by Peter Selinger 2001-2013
</metadata>
<g transform="translate(0.000000,2048.000000) scale(0.100000,-0.100000)"
fill="#000000" stroke="none">
<path d="M14789 14336 c-2 -2 -53 -6 -114 -10 -60 -3 -121 -8 -135 -10 -14 -2
-51 -7 -84 -11 -32 -4 -68 -8 -80 -10 -11 -2 -55 -9 -96 -15 -483 -75 -985
-247 -1380 -473 -182 -104 -411 -264 -535 -372 -16 -15 -54 -48 -84 -73 -456
-393 -864 -1021 -1089 -1677 -65 -190 -144 -491 -168 -639 -3 -21 -8 -48 -10
-60 -9 -44 -28 -172 -38 -256 -32 -260 -41 -429 -41 -775 0 -273 6 -461 20
-575 2 -19 7 -62 10 -95 10 -107 16 -148 41 -295 29 -178 32 -190 49 -266 8
-34 16 -73 19 -85 28 -135 112 -396 194 -599 60 -151 206 -445 275 -555 163
-260 301 -443 462 -613 482 -509 1064 -847 1786 -1036 219 -58 370 -85 664
-121 228 -27 894 -27 1056 0 13 2 51 6 84 10 134 12 382 53 520 85 45 10 92
21 105 24 56 11 312 88 415 125 319 114 633 276 880 455 199 144 428 357 550
511 22 28 42 52 45 55 19 17 167 230 215 310 73 118 172 317 218 435 19 50 38
99 42 110 5 11 9 25 10 30 2 6 12 37 23 70 42 122 112 416 127 535 3 19 7 53
10 75 11 77 26 220 29 270 1 20 -6 20 -1082 20 -953 0 -1083 -2 -1087 -15 -2
-8 -7 -31 -10 -50 -3 -19 -11 -55 -16 -80 -6 -25 -13 -56 -15 -70 -8 -44 -45
-172 -76 -265 -142 -419 -399 -739 -733 -912 -140 -72 -340 -130 -525 -152
-75 -8 -397 -7 -435 2 -11 3 -41 8 -67 11 -75 10 -232 53 -326 90 -492 190
-838 621 -1042 1299 -23 74 -43 143 -45 154 -42 189 -78 394 -90 513 -21 209
-23 228 -31 415 -11 262 -7 620 11 795 2 19 6 65 10 102 3 37 8 76 10 87 2 11
6 46 10 78 3 32 8 65 10 73 2 8 7 35 10 60 3 25 18 97 32 160 108 490 282 834
569 1126 267 271 555 421 919 478 87 14 434 16 495 3 14 -3 48 -9 75 -12 28
-4 59 -9 70 -10 95 -13 320 -87 420 -138 58 -29 194 -117 235 -151 150 -128
286 -305 373 -486 37 -78 90 -211 101 -255 1 -5 9 -30 16 -55 7 -25 14 -49 16
-55 19 -79 35 -148 40 -179 3 -22 9 -49 14 -60 l8 -21 1073 1 c591 1 1078 2
1083 3 7 1 3 83 -9 161 -2 14 -6 48 -10 75 -6 55 -21 143 -31 190 -3 17 -7 39
-9 50 -1 11 -8 43 -15 70 -6 28 -13 57 -15 65 -20 87 -100 337 -130 405 -7 17
-28 64 -46 105 -44 104 -127 267 -161 317 -15 23 -28 44 -28 47 0 8 -134 202
-180 260 -570 718 -1433 1142 -2545 1251 -33 3 -91 8 -130 11 -83 7 -700 15
-706 10z"/>
<path d="M2214 10018 l1 -4153 1870 0 c1029 0 1913 3 1965 8 191 15 498 50
565 63 11 3 36 7 55 10 255 41 632 148 885 251 130 53 364 162 386 180 8 7 19
13 23 13 5 0 61 31 125 69 132 78 302 197 441 309 118 96 397 372 476 472 32
41 61 77 64 80 37 33 237 331 305 455 131 237 250 508 331 753 37 114 111 390
120 451 3 20 7 44 10 53 3 9 6 25 8 35 8 43 16 90 21 112 2 14 7 45 10 70 3
25 7 57 9 71 10 53 15 98 21 165 4 39 9 86 11 105 24 226 24 861 0 1075 -2 17
-7 62 -10 100 -7 69 -32 256 -42 305 -3 14 -11 59 -19 100 -42 224 -105 443
-198 690 -39 103 -139 316 -198 420 -29 52 -60 109 -69 125 -36 66 -55 95 -62
95 -5 0 -8 5 -8 11 0 16 -131 201 -213 299 -146 177 -341 367 -517 505 -78 62
-331 234 -391 266 -325 177 -669 314 -1013 404 -75 20 -145 38 -154 40 -9 1
-35 8 -57 13 -22 6 -53 13 -70 16 -16 2 -55 9 -85 16 -30 6 -68 13 -85 16 -16
2 -55 9 -85 14 -30 5 -75 12 -100 15 -164 20 -215 25 -295 31 -49 3 -106 9
-125 11 -19 3 -906 7 -1971 10 l-1935 4 0 -4153z m3456 2468 c62 -4 116 -9
120 -11 3 -1 43 -6 90 -10 46 -3 87 -8 90 -10 3 -1 27 -6 53 -9 115 -16 326
-76 449 -128 417 -177 752 -500 947 -910 78 -163 151 -382 176 -527 3 -19 8
-37 10 -40 2 -4 6 -27 10 -51 3 -25 10 -70 15 -100 28 -173 35 -294 35 -600 0
-249 -7 -415 -20 -492 -2 -13 -6 -41 -9 -63 -4 -37 -26 -176 -30 -200 -56
-271 -140 -520 -245 -717 -113 -214 -201 -335 -366 -506 -297 -309 -695 -499
-1120 -537 -38 -4 -81 -8 -94 -10 -83 -14 -273 -18 -786 -19 -319 -1 -587 0
-596 2 -14 3 -15 237 -16 2470 0 1357 4 2469 8 2472 11 8 1148 4 1279 -4z"/>
</g>
</svg>
